PathFileType	4	(X/Y/Z)	Kaydara	
DataRate	CameraRate	NumFrames	NumMarkers	Units	OrigDataRate	OrigDataStartFrame	OrigNumFrames	
120.00	120.00	4	72	mm	120.00	33	261	
Frame#	Time	Hips			RightUpLeg			RightLeg			RightFoot			RightFoot_End			LeftUpLeg			LeftLeg			LeftFoot			LeftFoot_End			Spine			Spine1			Spine2			Spine3			Neck			Head			Head_End			RightShoulder			RightArm			RightForeArm			RightHand			RightHandThumb1			RightHandThumb2			RightHandThumb3			RightHandThumb3_End			RightInHandIndex			RightHandIndex1			RightHandIndex2			RightHandIndex3			RightHandIndex3_End			RightInHandMiddle			RightHandMiddle1			RightHandMiddle2			RightHandMiddle3			RightHandMiddle3_End			RightInHandRing			RightHandRing1			RightHandRing2			RightHandRing3			RightHandRing3_End			RightInHandPinky			RightHandPinky1			RightHandPinky2			RightHandPinky3			RightHandPinky3_End			LeftShoulder			LeftArm			LeftForeArm			LeftHand			LeftHandThumb1			LeftHandThumb2			LeftHandThumb3			LeftHandThumb3_End			LeftInHandIndex			LeftHandIndex1			LeftHandIndex2			LeftHandIndex3			LeftHandIndex3_End			LeftInHandMiddle			LeftHandMiddle1			LeftHandMiddle2			LeftHandMiddle3			LeftHandMiddle3_End			LeftInHandRing			LeftHandRing1			LeftHandRing2			LeftHandRing3			LeftHandRing3_End			LeftInHandPinky			LeftHandPinky1			LeftHandPinky2			LeftHandPinky3			LeftHandPinky3_End			
		X1	Y1	Z1	X2	Y2	Z2	X3	Y3	Z3	X4	Y4	Z4	X5	Y5	Z5	X6	Y6	Z6	X7	Y7	Z7	X8	Y8	Z8	X9	Y9	Z9	X10	Y10	Z10	X11	Y11	Z11	X12	Y12	Z12	X13	Y13	Z13	X14	Y14	Z14	X15	Y15	Z15	X16	Y16	Z16	X17	Y17	Z17	X18	Y18	Z18	X19	Y19	Z19	X20	Y20	Z20	X21	Y21	Z21	X22	Y22	Z22	X23	Y23	Z23	X24	Y24	Z24	X25	Y25	Z25	X26	Y26	Z26	X27	Y27	Z27	X28	Y28	Z28	X29	Y29	Z29	X30	Y30	Z30	X31	Y31	Z31	X32	Y32	Z32	X33	Y33	Z33	X34	Y34	Z34	X35	Y35	Z35	X36	Y36	Z36	X37	Y37	Z37	X38	Y38	Z38	X39	Y39	Z39	X40	Y40	Z40	X41	Y41	Z41	X42	Y42	Z42	X43	Y43	Z43	X44	Y44	Z44	X45	Y45	Z45	X46	Y46	Z46	X47	Y47	Z47	X48	Y48	Z48	X49	Y49	Z49	X50	Y50	Z50	X51	Y51	Z51	X52	Y52	Z52	X53	Y53	Z53	X54	Y54	Z54	X55	Y55	Z55	X56	Y56	Z56	X57	Y57	Z57	X58	Y58	Z58	X59	Y59	Z59	X60	Y60	Z60	X61	Y61	Z61	X62	Y62	Z62	X63	Y63	Z63	X64	Y64	Z64	X65	Y65	Z65	X66	Y66	Z66	X67	Y67	Z67	X68	Y68	Z68	X69	Y69	Z69	X70	Y70	Z70	X71	Y71	Z71	X72	Y72	Z72	

33	0.267	7081.203	893.81699	129.612	7160.419743608265	896.191938776952	82.30874588914497	7064.698982090362	497.0287712381085	0.18642190430007943	7038.32232434082	107.82366263700811	-30.780511657596577	6924.654423105661	35.51314343966908	105.86869091644513	7016.221254218094	866.317563025854	190.4380149973838	6915.055418272774	474.7148779717615	298.74739126189974	6809.835531855265	69.37652448485503	432.1239118977194	6662.361640112034	11.904396998552693	326.99361237773275	7015.867230982051	1010.4617744954934	79.35826342483229	6954.154736123204	1067.9150479432922	31.662801774547553	6885.93158743639	1120.963224162506	-20.373196581456494	6815.477510917633	1160.4538914102313	-73.64130098365575	6739.076665140266	1204.3573211223681	-127.94352040757902	6664.2075081411285	1240.3496355101342	-172.47240916613907	6525.600841236058	1318.7514227604563	-181.54539638181447	6784.138066877415	1196.8614241766186	-129.199787597091	6848.0191286264735	1205.8514456881858	-210.93949615246564	6909.814102260017	986.2864922912821	-241.57821808073368	7021.209378923023	830.0990365398064	-284.5863742192462	7017.671731729828	827.2320652929815	-305.5855788728636	7006.72582822173	815.6219206366574	-317.71134720609535	7001.252894934679	805.2421180686359	-324.16273675220395	6998.529431743537	794.6260408103486	-327.8360254581868	7026.520564553028	818.7636031622155	-300.9453241461517	7036.257395317878	792.8435732915182	-316.05333330408604	7035.197250344256	774.7003305631059	-323.4824948982378	7027.7302123887	767.2431766496367	-326.8592439609035	7016.957582312069	763.6492808788678	-328.8164380088959	7031.65628982465	813.420092025074	-294.85223822088744	7043.933450434418	785.2481934570917	-306.2932631878538	7043.412899789883	764.829186809952	-313.5431277192767	7034.709506204416	755.5343601837525	-317.2058802159951	7023.0707131098125	751.4570977426797	-319.1475179679351	7035.131767211701	810.2872519180928	-290.18323928350577	7049.431099706117	782.2642331379483	-296.4459627639787	7049.607320668557	763.8767095949613	-301.870941759668	7041.546722876188	754.5976686006125	-304.92917073718377	7030.761833751096	750.6154895038675	-306.52980946330814	7038.102589843325	807.5777662666632	-284.19648715369084	7053.373144227676	780.1324227473497	-286.32615345076164	7054.433957496476	764.6098804038141	-289.2480168031591	7048.999416381116	757.4554514668594	-290.79071178256504	7039.701797380541	753.7055919210702	-291.8126654443605	6744.555774112406	1181.164882207067	-90.74885171991701	6699.47890282477	1108.601405154028	-19.54803078570551	6870.273940560988	978.8960645730767	-120.20696968628832	7029.121098457645	867.3068448131211	-215.93097420452372	7033.339249290369	872.7565634724065	-237.35031069014113	7057.980112835722	872.8098128849497	-245.28511140291246	7077.5086681894845	870.1515044414141	-249.08723563675068	7095.815093516758	865.6295545024401	-250.78234415828297	7041.051514084542	863.2789371949127	-234.29116829430995	7073.1195665707	848.4915987548594	-250.95694881706046	7101.662564747806	839.8856830911204	-256.38748355321906	7118.407787409334	838.80315509044	-256.48932536338987	7131.593312605336	840.7858937168137	-254.364999121303	7046.6736824998925	856.5426635301412	-228.7298542721473	7080.991148218283	838.4754078562206	-241.9787971485211	7112.782831442265	828.2458724321239	-247.10902268177705	7133.295124292634	826.5373606914529	-246.85012079011796	7147.873076200204	828.5111731860393	-244.34011900501167	7049.786052850665	852.1231707073714	-224.43017198389944	7083.122110346999	831.9846530175422	-232.7313830948627	7111.4380931697	822.2401380470594	-236.36827573428994	7131.5457707133255	820.1522133749411	-235.67529718921566	7145.405278082051	821.7996313394091	-233.10521636834218	7052.770017345628	847.7546001771982	-218.56105570706924	7085.056820175736	826.4592990372221	-222.7454157657566	7108.531936924121	817.4519283295507	-224.31897959188072	7123.585897360444	815.346421169222	-223.16592892330186	7136.0860871649	816.4704854041754	-220.51656347919777
34	0.275	7081.203	893.81699	129.612	7160.800233225718	896.4111230724565	82.54825132902984	7064.725290245311	497.25473571414267	0.7743145817960908	7038.163629829676	107.8664269319152	-29.542818404803732	6924.353524340172	35.70386052948307	107.15352640958287	7015.815668447681	866.0874335016647	190.20451725650884	6914.579238139786	474.5454757883134	298.6690681784277	6809.118305775772	69.52775803557529	432.9352915441294	6661.645573355252	12.347089621243647	327.63636284790516	7015.924804503964	1010.4974440779309	79.35620371286613	6954.267753536472	1067.9894241971433	31.63331059800575	6886.109671238523	1121.0848393358426	-20.44384150440451	6815.736158838009	1160.63921779224	-73.77865223976453	6739.408724239712	1204.6062426663339	-128.13939152167646	6664.520475035907	1240.5938424773087	-172.65569268150836	6525.9062394782295	1318.9798291921622	-181.78604394174712	6784.568414350773	1197.3048642682156	-129.30599167410074	6849.069996510769	1207.3101379853103	-210.91701192173696	6911.8986194964955	987.7821249414442	-243.25171748290174	7025.1829637222545	832.741952147484	-287.7764281077079	7021.899764452545	830.2172128583177	-308.8337494674866	7011.140999882025	818.8233770853013	-321.3248802703466	7005.79381458852	808.5719293125997	-328.0579356376683	7003.171267807543	798.043793633411	-331.9893292004433	7030.765446012764	821.711430523276	-304.275774575671	7040.857024031366	796.1264196559096	-319.7888056675008	7039.990836686951	778.1567159510951	-327.6101526885718	7032.591538899826	770.7668909321642	-331.2376762956012	7021.839332959601	767.2013641086025	-333.4071263606811	7035.873864293514	816.2928204510796	-298.24788966911444	7048.482279436719	788.4070853400848	-310.11919665801514	7048.168555267514	768.1663740112731	-317.80444067151353	7039.544574625843	758.947464779686	-321.7733075058791	7027.927004703444	754.8986605026926	-323.94892443050435	7039.321574622965	813.0988999935213	-293.61375804202044	7053.8953644271405	785.2808581236827	-300.28984631266576	7054.246401271316	767.0369657063407	-306.1012264540789	7046.259506616562	757.824901490324	-309.45840341671004	7035.4931997846015	753.8665177032657	-311.2807836674864	7042.245564017971	810.3051649202065	-287.662246670937	7057.741030300006	782.9977593577847	-290.19001385567606	7058.9321183560205	767.5709684961976	-293.43029694734213	7053.5466389136145	760.4560745146705	-295.19540133749365	7044.262777222649	756.7219310054621	-296.4162886301038	6744.744488710395	1181.1734082653452	-91.00784467219933	6699.122443557106	1107.8309922546694	-20.34577116667217	6871.0746874315055	979.4625014572589	-121.8716608263949	7031.455341343903	869.3495435413724	-218.32236549284175	7035.902757555705	875.1056993115674	-239.60704495103005	7060.713546382728	875.340013827724	-247.29498514078472	7080.358622052744	872.7921720244491	-250.95206932526568	7098.760632134404	868.3489446942251	-252.54925396668597	7043.639168528547	865.6130072872031	-236.6505776670642	7076.046108691016	851.1574031707339	-253.2861836725142	7104.77355384221	842.7137662585637	-258.5958606694852	7121.580424011737	841.6814738685507	-258.5482028278609	7134.781209063285	843.6716254240324	-256.2499759107166	7049.2421610172	858.8194246239868	-231.15865948724485	7083.879810029816	841.0447536762566	-244.4157357708383	7115.869067944988	830.9835731677158	-249.423211282515	7136.4539635763695	829.3314825211577	-248.98832442076161	7151.047750768353	831.3113709420671	-246.29017348183035	7052.332913083545	854.351637765074	-226.90995901492295	7085.938841552709	834.43534323661	-235.26617822126641	7114.422744949552	824.828182336296	-238.80538712823648	7134.5981772890555	822.7896963732211	-237.94759875967452	7148.471495041102	824.4404653874395	-235.20295201730866	7055.277595323778	849.9125945017544	-221.0911519648051	7087.789751534734	828.7799912563935	-225.36094254473468	7111.391464656266	819.866993444009	-226.87055406442244	7126.491039592115	817.7899934821969	-225.60419295343868	7139.001272676722	818.9126790356797	-222.80416291989116
35	0.283	7081.203	893.81699	129.612	7161.175615211554	896.6272369969071	82.78699811506459	7064.748115211595	497.4771837137989	1.3641277154395723	7038.010430688426	107.90980520546137	-28.311379408869584	6924.061416482675	35.89293154902948	108.43210711634775	7015.4149693949785	865.8603022547893	189.97185011193704	6914.1076398193445	474.37913353205107	298.5912693576156	6808.405884865269	69.68060925391097	433.7414231477838	6660.935125976757	12.789696004463577	328.2737976268914	7015.9839305254645	1010.5334534859414	79.3533684412346	6954.383039702747	1068.0647345168807	31.602985231586175	6886.290711883293	1121.2081345751228	-20.515272189035805	6815.998294456796	1160.8271386275383	-73.91656123545003	6739.744863494641	1204.8586674812843	-128.33566686472074	6664.838217085577	1240.842586250739	-172.8393266706681	6526.216396371282	1319.2126720360666	-182.02692335775464	6785.001237652495	1197.7499325037581	-129.41221348982666	6850.118202133319	1208.7651682838791	-210.89063928808642	6913.979920239923	989.2817274895597	-244.90981787479754	7029.141530882548	835.3943917032302	-290.9434128670574	7026.112619079711	833.2127233999573	-312.0572067571664	7015.541384006712	822.036167741486	-324.9121702057652	7010.320109339822	811.9137447901087	-331.9258664542848	7007.798521000614	801.474103838505	-336.11454501228144	7034.994643958056	824.6696746157343	-307.58147853719595	7045.439973460752	799.4210258451106	-323.4972360329236	7044.767577982352	781.6257984924928	-331.7093165315154	7037.436373032833	774.3037875140744	-335.58693707053	7026.705190532547	770.766965364935	-337.96823410583175	7040.0755175426475	819.1759017457363	-301.6189914254787	7053.014087250414	791.5776055605165	-313.918447840115	7052.9069811995605	771.5161995821882	-322.03752056204803	7044.362825800129	762.3737869229551	-326.3117003403008	7032.767128388252	758.3538051748585	-328.7208567033289	7043.495312020088	815.9208217436623	-297.01992303923646	7058.342425844952	788.3088316940958	-304.1076300641588	7058.86807068551	770.2094356758874	-310.3040974047943	7050.955262907432	761.064898895442	-313.95946937320787	7040.208142297609	757.1306492187759	-316.003187179063	7046.372374895735	813.0427054968821	-291.1039579074971	7062.091634773155	785.8741436685078	-294.02840650882695	7063.412795137177	770.5437689606945	-297.5861236442217	7058.076639848102	763.4687979416739	-299.573120369843	7048.807060424227	759.750662738841	-300.99260194526477	6744.938483745237	1181.1867818848084	-91.267649712542	6698.775158718931	1107.0729997210299	-21.145216820095648	6871.875098363163	980.0378461088455	-123.52686061995115	7033.777397786723	871.400371552277	-220.69460715244648	7038.453183904066	877.4630803886653	-241.84359999653094	7063.432105819461	877.8780962259652	-249.28436741822446	7083.192375938692	875.440477424636	-252.79616973451937	7101.688798915423	871.0757778901602	-254.2952080528722	7046.2134276901015	867.9554228095159	-238.98952489378735	7078.9569132691395	853.8316820518595	-255.59329797489985	7107.866921020216	845.5501210647811	-260.78150319056044	7124.734372659339	844.5677596536176	-260.5844089193499	7137.9496063537645	846.5649515669943	-258.11263380313557	7051.797102126576	861.1045391300387	-233.5670196615281	7086.7525730606185	843.6225831664068	-246.8306208899228	7118.937337966596	833.7295365186881	-251.71468464911354	7139.593544737569	832.1334995675143	-251.10389308151272	7154.20227692433	834.1190563169176	-248.21798060129643	7054.8661968762335	856.5884636418903	-229.36934943681248	7088.739850879877	836.8945226593116	-237.77915980231836	7117.389864612266	827.4245231929095	-241.220119304887	7137.631801596412	825.4351215725573	-240.19760442765528	7151.51809061634	827.0888584002845	-237.27875901047446	7057.7716070612605	852.0789260305276	-223.6010025321869	7090.50715979889	831.109137252598	-227.95499649082436	7114.234016548249	822.2903575446478	-229.4002262685536	7129.378292583233	820.2416060460079	-228.02062686935045	7141.897824744686	821.3625732843927	-225.07026411867545
36	0.292	7081.203	893.81699	129.612	7161.545806611401	896.8402276623976	83.02492571710253	7064.767440321184	497.69606253482647	1.9557283057309007	7037.862771953481	107.95378437306252	-27.086471515945497	6923.778173069156	36.08031255647617	109.70414722623917	7015.019245319566	865.6362246653562	189.74007311004632	6913.6407332661	474.2158924281904	298.5140230583438	6807.698441410533	69.83504059159533	434.54212524830075	6660.23046792308	13.232113742878399	328.9057748525725	7016.044598141043	1010.5697951318571	79.34975704848	6954.500572656202	1068.1409627933933	31.57182964499193	6886.474674216243	1121.333083327707	-20.587477329683875	6816.263865818822	1161.0176131010353	-74.05500392215893	6740.085016003217	1205.1145406521275	-128.53231171263684	6665.160673644782	1241.0958136966456	-173.02328218641665	6526.531253155317	1319.4499018470694	-182.26799675485367	6785.436448972518	1198.1965281807998	-129.51844128778228	6851.163523876616	1210.2161982773137	-210.86041187597698	6916.0575165295095	990.7849214666265	-246.55216866487746	7033.084152968917	838.055677590377	-294.0866608081781	7030.309308726344	836.2178375197802	-315.255274439338	7019.925947195194	825.259482156359	-328.47246145032983	7014.83071444306	815.2667234794723	-335.7657121517753	7012.410101343313	804.9161091759958	-340.2107992007233	7039.207167772681	827.6375835299482	-310.8617412076452	7050.005169135595	802.7265572457221	-327.1778438730863	7049.526352278699	785.1067012766678	-335.7791204864604	7042.263574937704	777.8529739246164	-339.9061048732285	7031.554008205129	774.3451865398135	-342.4987923189357	7044.260265243117	822.0686011449179	-304.9648333118193	7057.527811155387	794.7589479571623	-317.69021466448396	7057.627064169516	774.8778137564117	-326.24147033800745	7049.16312525235	765.812459298093	-330.8200938873411	7037.589942316749	761.8216588702949	-333.4622975514077	7047.652001535705	818.7522964893413	-300.40101563915994	7062.771241095361	791.3473810045583	-307.8985062827095	7063.47124312448	773.3933113726746	-314.47866241130566	7055.632886321274	764.3168372019833	-318.4314101372847	7044.905549248812	760.4070558805399	-320.6960118345065	7050.48205543307	815.789687040805	-294.5208933591123	7066.423937231199	788.7608385445941	-297.8405173720994	7067.874935310687	773.5275208784965	-301.7146129901056	7062.588353421166	766.4928516989544	-303.92293556072866	7053.333575991576	762.7910142815338	-305.5406274293936	6745.13772210172	1181.2050040141241	-91.52821340262308	6698.437126665601	1106.3276052955734	-21.946173361152955	6872.67497312325	980.6219450353568	-125.1722032570058	7036.086721064772	873.4588006973033	-223.04719740519596	7040.989930765683	879.8281034979271	-244.05950896769315	7066.135159014573	880.423411110452	-251.2528510159662	7086.0092739337915	878.0957432676378	-254.61916504043978	7104.598918365177	873.8093559996408	-256.0198588494026	7048.773687865384	870.3055829592356	-241.30752021577138	7081.8513013875145	856.5137499655428	-257.877815330938	7110.941948354238	848.3940199016904	-262.9439659290513	7127.868904092577	847.4612715389251	-262.5975338375119	7141.097774553049	849.4651289478671	-259.95260307137926	7054.337906154953	863.3974194089897	-235.9544289181839	7089.608766452823	846.2082332570131	-249.22295094066132	7121.986928873987	836.4830554259083	-253.9829731255386	7142.713141851846	834.9426897023474	-253.19639878132492	7157.335928201931	836.9335051496411	-250.1231557198292	7057.385309174255	858.833071994075	-231.80782538436205	7091.52448305316	839.3615566669135	-240.26980266980252	7120.33876139486	830.0284898546473	-243.6119727140796	7140.645940542534	828.0878048426314	-242.42485366707362	7154.544361437968	829.744124889445	-239.33221702718322	7060.251466175314	854.2530351819098	-226.09007738680862	7093.208408174861	833.4461337510755	-230.5270325207383	7117.058929094507	824.721392098585	-231.90746824582976	7132.246984659516	822.7006223592598	-230.41472953746802	7144.775071923845	823.8195314714724	-227.31440061394176
